<svg
  width="256"
  height="256"
  viewBox="0 0 100 100"
  fill="none"
  xmlns="http://www.w3.org/2000/svg"
>
  <circle cx="20" cy="30" r="8" fill="white" />
  <circle cx="20" cy="70" r="8" fill="white" />

  <circle cx="50" cy="20" r="8" fill="white" />
  <circle cx="50" cy="50" r="8" fill="white" />
  <circle cx="50" cy="80" r="8" fill="white" />

  <circle cx="80" cy="40" r="8" fill="white" />
  <circle cx="80" cy="60" r="8" fill="white" />

  <line x1="20" y1="30" x2="50" y2="20" stroke="white" stroke-width="2" />
  <line x1="20" y1="30" x2="50" y2="50" stroke="white" stroke-width="2" />
  <line x1="20" y1="30" x2="50" y2="80" stroke="white" stroke-width="2" />

  <line x1="20" y1="70" x2="50" y2="20" stroke="white" stroke-width="2" />
  <line x1="20" y1="70" x2="50" y2="50" stroke="white" stroke-width="2" />
  <line x1="20" y1="70" x2="50" y2="80" stroke="white" stroke-width="2" />

  <line x1="50" y1="20" x2="80" y2="40" stroke="white" stroke-width="2" />
  <line x1="50" y1="20" x2="80" y2="60" stroke="white" stroke-width="2" />

  <line x1="50" y1="50" x2="80" y2="40" stroke="white" stroke-width="2" />
  <line x1="50" y1="50" x2="80" y2="60" stroke="white" stroke-width="2" />

  <line x1="50" y1="80" x2="80" y2="40" stroke="white" stroke-width="2" />
  <line x1="50" y1="80" x2="80" y2="60" stroke="white" stroke-width="2" />
</svg>
